<?xml version="1.0" encoding="utf-8"?>
<!-- Generator: Adobe Illustrator 19.2.1, SVG Export Plug-In . SVG Version: 6.00 Build 0)  -->
<svg version="1.1" id="Layer_1" xmlns="http://www.w3.org/2000/svg" xmlns:xlink="http://www.w3.org/1999/xlink" x="0px" y="0px"
	 viewBox="0 0 693.3 693.3" style="enable-background:new 0 0 693.3 693.3;" xml:space="preserve">
<style type="text/css">
	.st0{fill:#231F20;}
	.st1{fill:#DA81B5;}
	.st2{fill:#34C4E8;}
	.st3{fill:#929497;}
</style>
<g>
	<path class="st0" d="M665.9,437.8c8.2-29,12.7-59.5,12.7-91.1c0-183.3-148.6-331.9-331.9-331.9c-131.7,0-245.5,76.7-299.1,188
		h298.9v52.8H27.4c-8.2,29-12.7,59.5-12.7,91.1c0,183.3,148.6,331.9,331.9,331.9c131.7,0,245.5-76.7,299.1-188H346.6v-52.8H665.9z"
		/>
	<path class="st1" d="M27.4,437.8c39.6,139,167.5,240.8,319.2,240.8V437.8H27.4z"/>
	<g>
		<path class="st2" d="M346.5,255.5"/>
		<path class="st2" d="M665.7,255.5c-39.6-139-167.5-240.8-319.2-240.8v240.8H665.7z"/>
	</g>
	<g>
		<path class="st3" d="M96,386.3h6.3c0-2.5-0.1-11.3-0.1-16V345l2.3-2.1l17.7,16.6v25.4c0,4.7,0.1,13.4,0.1,16H116L96,386.3z
			 M102.1,336.7v-27.7c0-5.3,0.1-10.6,0.1-16l20,14.6c0,1.7-0.1,6-0.1,10L102.1,336.7z M150.3,386.3h9.1c-1.7-1.7-8.3-7.7-11.7-10.9
			L113.3,343c-2.4-2.3-3.9-3.6-5.1-4v-0.5c0.9-0.4,2.1-1.3,4.8-3.9l32.1-30.6c3.5-3.2,9.9-9.1,11.7-10.9l20,14.6
			c-1.9,1.9-8.3,7.7-11.7,10.9l-26.8,25.6c-2.7,2.5-3.9,3.5-4.8,3.9v0.5c1.2,0.4,2.7,1.7,5.1,4l39.5,37.4c3.9,3.6,7.6,7.3,11.4,10.9
			h-16.2L150.3,386.3z"/>
		<path class="st3" d="M186.7,386.3h6.8c0,0,2.4-6.5,4.8-12.6l1.3-3.6H252l1.6,3.7l4.3,10.9h-38.3l-1.3,3.6
			c-2.4,6.1-4.8,12.6-4.8,12.6h-6.8L186.7,386.3z M225.5,303.1c0.1,1.6,0.9,4.3,3.3,10l9.5,23.3l-10.8,27.8h-21.7
			c-2.4,0-4.4,0.5-4.7,0.8l-0.3-0.5c0.4-0.3,1.6-1.7,2.3-3.5l18.6-47.9c2.3-5.7,3.1-8.4,3.2-10H225.5z M245.2,302.7l33.9,83.5
			c1.9,4.7,6.1,14.8,6.1,14.8h-6.8l-20-14.6h6.8c0,0-4.3-10.1-6.1-14.8L225.3,288L245.2,302.7z"/>
		<path class="st3" d="M293.3,386.3H307c4.7,0,13.4,0.1,16,0.1v-6.1l20,14.6v6.1c-2.5,0-11.3-0.1-16-0.1h-13.7L293.3,386.3z
			 M319.4,307.7c0,2.5-0.1,11.3-0.1,16v56.6c-3.7,0.1-9.1,0.1-12.2,0.1h-7.7v-71.4c0-4.7,0.1-13.4,0.1-16L319.4,307.7z"/>
		<path class="st3" d="M383.9,307.7c0,2.5-0.1,11.3-0.1,16v61.2c0,4.7,0.1,13.4,0.1,16h-6.3l-20-14.6h6.3c0-2.5-0.1-11.3-0.1-16
			v-61.2c0-4.7,0.1-13.4,0.1-16L383.9,307.7z"/>
		<path class="st3" d="M399.8,386.3h20.4c18.2,0,26.9-10.9,26.9-26.4c0-10.8-8.4-20-17.3-22.2v-0.5c8.4-2.9,13.3-12,13.3-20.9
			c0-6.8-2.3-14-8.3-18.4l20,14.6c6.1,4.5,8.3,11.3,8.3,18.4c0,7.9-4.9,15.3-13.3,18.2v0.5c8.7,2.8,17.3,12.8,17.3,24.9
			c0,15.4-8.7,26.4-26.9,26.4h-20.4L399.8,386.3z M405.8,298.9h11.8c13.4,0,18.9,7.6,19.3,16c-1.3-0.4-4-1.3-8.7-1.3h-2.5v20.1
			c-2.4,0.9-5.1,1.5-8,1.5h-12V298.9z M405.8,341H420c11,0,19.6,7.7,20.9,17c-2.5-1.2-5.9-2.4-10.3-2.4h-4.9v24.2
			c-1.9,0.4-3.9,0.5-6,0.5h-14V341z"/>
		<path class="st3" d="M560.6,313.5c-4.5-1.6-9.3-2.5-14.4-2.5c-23.8,0-43.3,19.4-43.3,43.4c0,9.9,3.2,18.9,8.7,26.2
			c-16.6-6.1-28.6-22.1-28.6-40.9c0-24,19.4-43.4,43.3-43.4C545.4,296.3,556.9,308.3,560.6,313.5z M497.2,379.5
			c6.1,4.4,16,9.5,29,9.5c27.2,0,49.3-22.1,49.3-49.3c0-15.4-7.2-29.3-18.5-38.3l18.1,13.2c12.2,8.9,20.4,23.4,20.4,39.8
			c0,27.2-22.1,49.3-49.3,49.3c-11,0-20.9-3.6-29.2-9.6L497.2,379.5z"/>
	</g>
</g>
</svg>
